# xmcd CD database file
#
# Track frame offsets:
#	150
#	15590
#	30715
#
# Disc length: 612 seconds
#
# Revision: 1
# Processed by: cddbd v1.5.1PL0 Copyright (c) Steve Scherf et al.
# Submitted via: CDex 1.51
#
DISCID=18026203
DTITLE=MANISH - 明日のStory
DYEAR=1994
DGENRE=JPop
TTITLE0=明日のStory
TTITLE1=ずっと見つめていたかった
TTITLE2=明日のStory (オリジナル・カラオケ)
EXTD=YEAR: 1994
EXTT0=
EXTT1=
EXTT2=
PLAYORDER=
